<svg width="478" height="44" viewBox="0 0 478 44" fill="none" xmlns="http://www.w3.org/2000/svg">
<rect x="0.5" y="0.5" width="299" height="43" rx="6.5" fill="white"/>
<rect x="0.5" y="0.5" width="299" height="43" rx="6.5" stroke="#76CA66"/>
<path d="M22.704 24.432C22.704 24.9653 22.6453 25.4613 22.528 25.92C22.4213 26.3787 22.224 26.784 21.936 27.136C21.6587 27.4773 21.28 27.7493 20.8 27.952C20.3307 28.144 19.7387 28.24 19.024 28.24C18.6613 28.24 18.3253 28.208 18.016 28.144C17.7173 28.0907 17.4453 28.0213 17.2 27.936C16.9547 27.84 16.7413 27.744 16.56 27.648C16.3787 27.5413 16.2347 27.44 16.128 27.344L16.736 26.112C16.96 26.272 17.248 26.4427 17.6 26.624C17.9627 26.7947 18.4107 26.88 18.944 26.88C19.712 26.88 20.272 26.688 20.624 26.304C20.976 25.9093 21.152 25.2373 21.152 24.288V16.912H22.704V24.432ZM32.464 23.84C32.464 24.5013 32.368 25.0987 32.176 25.632C31.984 26.1653 31.712 26.624 31.36 27.008C31.0187 27.392 30.608 27.6907 30.128 27.904C29.648 28.1067 29.1253 28.208 28.56 28.208C27.9947 28.208 27.472 28.1067 26.992 27.904C26.512 27.6907 26.096 27.392 25.744 27.008C25.4027 26.624 25.136 26.1653 24.944 25.632C24.752 25.0987 24.656 24.5013 24.656 23.84C24.656 23.1893 24.752 22.5973 24.944 22.064C25.136 21.52 25.4027 21.056 25.744 20.672C26.096 20.288 26.512 19.9947 26.992 19.792C27.472 19.5787 27.9947 19.472 28.56 19.472C29.1253 19.472 29.648 19.5787 30.128 19.792C30.608 19.9947 31.0187 20.288 31.36 20.672C31.712 21.056 31.984 21.52 32.176 22.064C32.368 22.5973 32.464 23.1893 32.464 23.84ZM30.912 23.84C30.912 22.9013 30.6987 22.16 30.272 21.616C29.856 21.0613 29.2853 20.784 28.56 20.784C27.8347 20.784 27.2587 21.0613 26.832 21.616C26.416 22.16 26.208 22.9013 26.208 23.84C26.208 24.7787 26.416 25.5253 26.832 26.08C27.2587 26.624 27.8347 26.896 28.56 26.896C29.2853 26.896 29.856 26.624 30.272 26.08C30.6987 25.5253 30.912 24.7787 30.912 23.84ZM34.3975 28V15.84L35.8855 15.584V19.84C36.1628 19.7333 36.4562 19.6533 36.7655 19.6C37.0855 19.536 37.4002 19.504 37.7095 19.504C38.3708 19.504 38.9202 19.6 39.3575 19.792C39.7948 19.9733 40.1415 20.2347 40.3975 20.576C40.6642 20.9067 40.8508 21.3067 40.9575 21.776C41.0642 22.2453 41.1175 22.7627 41.1175 23.328V28H39.6295V23.648C39.6295 23.136 39.5922 22.6987 39.5175 22.336C39.4535 21.9733 39.3415 21.68 39.1815 21.456C39.0215 21.232 38.8082 21.072 38.5415 20.976C38.2748 20.8693 37.9442 20.816 37.5495 20.816C37.3895 20.816 37.2242 20.8267 37.0535 20.848C36.8828 20.8693 36.7175 20.896 36.5575 20.928C36.4082 20.9493 36.2695 20.976 36.1415 21.008C36.0242 21.04 35.9388 21.0667 35.8855 21.088V28H34.3975ZM43.3781 19.92C43.7195 19.8347 44.1728 19.744 44.7381 19.648C45.3035 19.552 45.9541 19.504 46.6901 19.504C47.3515 19.504 47.9008 19.6 48.3381 19.792C48.7755 19.9733 49.1221 20.2347 49.3781 20.576C49.6448 20.9067 49.8315 21.3067 49.9381 21.776C50.0448 22.2453 50.0981 22.7627 50.0981 23.328V28H48.6101V23.648C48.6101 23.136 48.5728 22.6987 48.4981 22.336C48.4341 21.9733 48.3221 21.68 48.1621 21.456C48.0021 21.232 47.7888 21.072 47.5221 20.976C47.2555 20.8693 46.9248 20.816 46.5301 20.816C46.3701 20.816 46.2048 20.8213 46.0341 20.832C45.8635 20.8427 45.6981 20.8587 45.5381 20.88C45.3888 20.8907 45.2501 20.9067 45.1221 20.928C45.0048 20.9493 44.9195 20.9653 44.8661 20.976V28H43.3781V19.92Z" fill="#374151"/>
<path d="M330 32C324.48 31.994 320.006 27.5204 320 22V21.8C320.11 16.3045 324.635 11.928 330.131 12.0009C335.627 12.0738 340.034 16.5689 339.998 22.0654C339.962 27.5618 335.497 31.9989 330 32ZM325.41 21.59L324 23L328 27L336 19L334.59 17.58L328 24.17L325.41 21.59Z" fill="#76CA66"/>
<path d="M352.016 26.496C352.741 26.496 353.269 26.3733 353.6 26.128C353.931 25.8827 354.096 25.536 354.096 25.088C354.096 24.8213 354.037 24.592 353.92 24.4C353.813 24.208 353.653 24.0373 353.44 23.888C353.237 23.728 352.987 23.584 352.688 23.456C352.389 23.3173 352.048 23.184 351.664 23.056C351.28 22.9173 350.907 22.768 350.544 22.608C350.192 22.4373 349.877 22.2293 349.6 21.984C349.333 21.7387 349.115 21.4453 348.944 21.104C348.784 20.7627 348.704 20.352 348.704 19.872C348.704 18.8693 349.051 18.0853 349.744 17.52C350.437 16.944 351.381 16.656 352.576 16.656C353.269 16.656 353.883 16.736 354.416 16.896C354.96 17.0453 355.387 17.2107 355.696 17.392L355.072 19.024C354.709 18.8213 354.309 18.6667 353.872 18.56C353.445 18.4533 353.003 18.4 352.544 18.4C352 18.4 351.573 18.512 351.264 18.736C350.965 18.96 350.816 19.2747 350.816 19.68C350.816 19.9253 350.864 20.1387 350.96 20.32C351.067 20.4907 351.211 20.6453 351.392 20.784C351.584 20.9227 351.803 21.0507 352.048 21.168C352.304 21.2853 352.581 21.3973 352.88 21.504C353.403 21.696 353.867 21.8933 354.272 22.096C354.688 22.288 355.035 22.5227 355.312 22.8C355.6 23.0667 355.819 23.3867 355.968 23.76C356.117 24.1227 356.192 24.5653 356.192 25.088C356.192 26.0907 355.835 26.8693 355.12 27.424C354.416 27.968 353.381 28.24 352.016 28.24C351.557 28.24 351.136 28.208 350.752 28.144C350.379 28.0907 350.043 28.0213 349.744 27.936C349.456 27.8507 349.205 27.7653 348.992 27.68C348.779 27.584 348.608 27.4987 348.48 27.424L349.072 25.776C349.36 25.936 349.749 26.096 350.24 26.256C350.731 26.416 351.323 26.496 352.016 26.496ZM364.577 27.744C364.203 27.84 363.718 27.936 363.121 28.032C362.523 28.1387 361.867 28.192 361.153 28.192C360.481 28.192 359.915 28.096 359.457 27.904C359.009 27.712 358.646 27.4453 358.369 27.104C358.102 26.7627 357.91 26.3573 357.793 25.888C357.675 25.408 357.617 24.8853 357.617 24.32V19.632H359.553V24.016C359.553 24.912 359.681 25.552 359.937 25.936C360.203 26.32 360.662 26.512 361.313 26.512C361.547 26.512 361.793 26.5013 362.049 26.48C362.315 26.4587 362.513 26.432 362.641 26.4V19.632H364.577V27.744ZM366.417 23.824C366.417 23.2053 366.513 22.6293 366.705 22.096C366.897 21.552 367.169 21.0827 367.521 20.688C367.883 20.2933 368.321 19.984 368.833 19.76C369.345 19.536 369.921 19.424 370.561 19.424C371.35 19.424 372.097 19.568 372.801 19.856L372.385 21.44C372.161 21.344 371.905 21.264 371.617 21.2C371.339 21.136 371.041 21.104 370.721 21.104C369.963 21.104 369.387 21.344 368.993 21.824C368.598 22.2933 368.401 22.96 368.401 23.824C368.401 24.656 368.587 25.3173 368.961 25.808C369.334 26.288 369.963 26.528 370.849 26.528C371.179 26.528 371.505 26.496 371.825 26.432C372.145 26.368 372.422 26.288 372.657 26.192L372.929 27.792C372.715 27.8987 372.39 27.9947 371.953 28.08C371.526 28.1653 371.083 28.208 370.625 28.208C369.91 28.208 369.286 28.1013 368.753 27.888C368.23 27.664 367.793 27.36 367.441 26.976C367.099 26.5813 366.843 26.1173 366.673 25.584C366.502 25.04 366.417 24.4533 366.417 23.824ZM373.804 23.824C373.804 23.2053 373.9 22.6293 374.092 22.096C374.284 21.552 374.556 21.0827 374.908 20.688C375.27 20.2933 375.708 19.984 376.22 19.76C376.732 19.536 377.308 19.424 377.948 19.424C378.737 19.424 379.484 19.568 380.188 19.856L379.772 21.44C379.548 21.344 379.292 21.264 379.004 21.2C378.726 21.136 378.428 21.104 378.108 21.104C377.35 21.104 376.774 21.344 376.38 21.824C375.985 22.2933 375.788 22.96 375.788 23.824C375.788 24.656 375.974 25.3173 376.348 25.808C376.721 26.288 377.35 26.528 378.236 26.528C378.566 26.528 378.892 26.496 379.212 26.432C379.532 26.368 379.809 26.288 380.044 26.192L380.316 27.792C380.102 27.8987 379.777 27.9947 379.34 28.08C378.913 28.1653 378.47 28.208 378.012 28.208C377.297 28.208 376.673 28.1013 376.14 27.888C375.617 27.664 375.18 27.36 374.828 26.976C374.486 26.5813 374.23 26.1173 374.06 25.584C373.889 25.04 373.804 24.4533 373.804 23.824ZM381.191 23.856C381.191 23.12 381.297 22.4747 381.511 21.92C381.735 21.3653 382.028 20.9067 382.391 20.544C382.753 20.1707 383.169 19.8933 383.639 19.712C384.108 19.52 384.588 19.424 385.079 19.424C386.231 19.424 387.127 19.7813 387.767 20.496C388.417 21.2107 388.743 22.2773 388.743 23.696C388.743 23.8027 388.737 23.9253 388.727 24.064C388.727 24.192 388.721 24.3093 388.711 24.416H383.191C383.244 25.088 383.479 25.6107 383.895 25.984C384.321 26.3467 384.935 26.528 385.735 26.528C386.204 26.528 386.631 26.4853 387.015 26.4C387.409 26.3147 387.719 26.224 387.943 26.128L388.199 27.712C388.092 27.7653 387.943 27.824 387.751 27.888C387.569 27.9413 387.356 27.9893 387.111 28.032C386.876 28.0853 386.62 28.128 386.343 28.16C386.065 28.192 385.783 28.208 385.495 28.208C384.759 28.208 384.119 28.1013 383.575 27.888C383.031 27.664 382.583 27.36 382.231 26.976C381.879 26.5813 381.617 26.1227 381.447 25.6C381.276 25.0667 381.191 24.4853 381.191 23.856ZM386.807 22.992C386.807 22.7253 386.769 22.4747 386.695 22.24C386.62 21.9947 386.508 21.7867 386.359 21.616C386.22 21.4347 386.044 21.296 385.831 21.2C385.628 21.0933 385.383 21.04 385.095 21.04C384.796 21.04 384.535 21.0987 384.311 21.216C384.087 21.3227 383.895 21.4667 383.735 21.648C383.585 21.8293 383.468 22.0373 383.383 22.272C383.297 22.5067 383.239 22.7467 383.207 22.992H386.807ZM392.731 26.608C393.243 26.608 393.616 26.5493 393.851 26.432C394.086 26.304 394.203 26.0907 394.203 25.792C394.203 25.5147 394.075 25.2853 393.819 25.104C393.574 24.9227 393.163 24.7253 392.587 24.512C392.235 24.384 391.91 24.2507 391.611 24.112C391.323 23.9627 391.072 23.792 390.859 23.6C390.646 23.408 390.475 23.1787 390.347 22.912C390.23 22.6347 390.171 22.2987 390.171 21.904C390.171 21.136 390.454 20.5333 391.019 20.096C391.584 19.648 392.352 19.424 393.323 19.424C393.814 19.424 394.283 19.472 394.731 19.568C395.179 19.6533 395.515 19.7387 395.739 19.824L395.387 21.392C395.174 21.296 394.902 21.2107 394.571 21.136C394.24 21.0507 393.856 21.008 393.419 21.008C393.024 21.008 392.704 21.0773 392.459 21.216C392.214 21.344 392.091 21.5467 392.091 21.824C392.091 21.9627 392.112 22.0853 392.155 22.192C392.208 22.2987 392.294 22.4 392.411 22.496C392.528 22.5813 392.683 22.672 392.875 22.768C393.067 22.8533 393.302 22.944 393.579 23.04C394.038 23.2107 394.427 23.3813 394.747 23.552C395.067 23.712 395.328 23.8987 395.531 24.112C395.744 24.3147 395.899 24.5493 395.995 24.816C396.091 25.0827 396.139 25.4027 396.139 25.776C396.139 26.576 395.84 27.184 395.243 27.6C394.656 28.0053 393.814 28.208 392.715 28.208C391.979 28.208 391.387 28.144 390.939 28.016C390.491 27.8987 390.176 27.8027 389.995 27.728L390.331 26.112C390.619 26.2293 390.96 26.3413 391.355 26.448C391.76 26.5547 392.219 26.608 392.731 26.608ZM399.884 26.608C400.396 26.608 400.769 26.5493 401.004 26.432C401.238 26.304 401.356 26.0907 401.356 25.792C401.356 25.5147 401.228 25.2853 400.972 25.104C400.726 24.9227 400.316 24.7253 399.74 24.512C399.388 24.384 399.062 24.2507 398.764 24.112C398.476 23.9627 398.225 23.792 398.012 23.6C397.798 23.408 397.628 23.1787 397.5 22.912C397.382 22.6347 397.324 22.2987 397.324 21.904C397.324 21.136 397.606 20.5333 398.172 20.096C398.737 19.648 399.505 19.424 400.476 19.424C400.966 19.424 401.436 19.472 401.884 19.568C402.332 19.6533 402.668 19.7387 402.892 19.824L402.54 21.392C402.326 21.296 402.054 21.2107 401.724 21.136C401.393 21.0507 401.009 21.008 400.572 21.008C400.177 21.008 399.857 21.0773 399.612 21.216C399.366 21.344 399.244 21.5467 399.244 21.824C399.244 21.9627 399.265 22.0853 399.308 22.192C399.361 22.2987 399.446 22.4 399.564 22.496C399.681 22.5813 399.836 22.672 400.028 22.768C400.22 22.8533 400.454 22.944 400.732 23.04C401.19 23.2107 401.58 23.3813 401.9 23.552C402.22 23.712 402.481 23.8987 402.684 24.112C402.897 24.3147 403.052 24.5493 403.148 24.816C403.244 25.0827 403.292 25.4027 403.292 25.776C403.292 26.576 402.993 27.184 402.396 27.6C401.809 28.0053 400.966 28.208 399.868 28.208C399.132 28.208 398.54 28.144 398.092 28.016C397.644 27.8987 397.329 27.8027 397.148 27.728L397.484 26.112C397.772 26.2293 398.113 26.3413 398.508 26.448C398.913 26.5547 399.372 26.608 399.884 26.608ZM413.283 23.6C413.283 22.7253 413.171 22.096 412.947 21.712C412.733 21.3173 412.328 21.12 411.731 21.12C411.517 21.12 411.283 21.136 411.027 21.168C410.771 21.2 410.579 21.2267 410.451 21.248V28H408.515V19.904C408.888 19.7973 409.373 19.696 409.971 19.6C410.579 19.504 411.219 19.456 411.891 19.456C412.467 19.456 412.936 19.5307 413.299 19.68C413.672 19.8293 413.981 20.0267 414.227 20.272C414.344 20.1867 414.493 20.096 414.675 20C414.856 19.904 415.059 19.8187 415.283 19.744C415.507 19.6587 415.741 19.5893 415.987 19.536C416.243 19.4827 416.499 19.456 416.755 19.456C417.405 19.456 417.939 19.552 418.355 19.744C418.781 19.9253 419.112 20.1867 419.347 20.528C419.592 20.8587 419.757 21.264 419.843 21.744C419.939 22.2133 419.987 22.7307 419.987 23.296V28H418.051V23.6C418.051 22.7253 417.944 22.096 417.731 21.712C417.517 21.3173 417.107 21.12 416.499 21.12C416.189 21.12 415.896 21.1733 415.619 21.28C415.341 21.376 415.133 21.472 414.995 21.568C415.08 21.8347 415.139 22.1173 415.171 22.416C415.203 22.7147 415.219 23.0347 415.219 23.376V28H413.283V23.6ZM421.734 23.856C421.734 23.12 421.841 22.4747 422.054 21.92C422.278 21.3653 422.572 20.9067 422.934 20.544C423.297 20.1707 423.713 19.8933 424.182 19.712C424.652 19.52 425.132 19.424 425.622 19.424C426.774 19.424 427.67 19.7813 428.31 20.496C428.961 21.2107 429.286 22.2773 429.286 23.696C429.286 23.8027 429.281 23.9253 429.27 24.064C429.27 24.192 429.265 24.3093 429.254 24.416H423.734C423.788 25.088 424.022 25.6107 424.438 25.984C424.865 26.3467 425.478 26.528 426.278 26.528C426.748 26.528 427.174 26.4853 427.558 26.4C427.953 26.3147 428.262 26.224 428.486 26.128L428.742 27.712C428.636 27.7653 428.486 27.824 428.294 27.888C428.113 27.9413 427.9 27.9893 427.654 28.032C427.42 28.0853 427.164 28.128 426.886 28.16C426.609 28.192 426.326 28.208 426.038 28.208C425.302 28.208 424.662 28.1013 424.118 27.888C423.574 27.664 423.126 27.36 422.774 26.976C422.422 26.5813 422.161 26.1227 421.99 25.6C421.82 25.0667 421.734 24.4853 421.734 23.856ZM427.35 22.992C427.35 22.7253 427.313 22.4747 427.238 22.24C427.164 21.9947 427.052 21.7867 426.902 21.616C426.764 21.4347 426.588 21.296 426.374 21.2C426.172 21.0933 425.926 21.04 425.638 21.04C425.34 21.04 425.078 21.0987 424.854 21.216C424.63 21.3227 424.438 21.4667 424.278 21.648C424.129 21.8293 424.012 22.0373 423.926 22.272C423.841 22.5067 423.782 22.7467 423.75 22.992H427.35ZM433.275 26.608C433.787 26.608 434.16 26.5493 434.395 26.432C434.63 26.304 434.747 26.0907 434.747 25.792C434.747 25.5147 434.619 25.2853 434.363 25.104C434.118 24.9227 433.707 24.7253 433.131 24.512C432.779 24.384 432.454 24.2507 432.155 24.112C431.867 23.9627 431.616 23.792 431.403 23.6C431.19 23.408 431.019 23.1787 430.891 22.912C430.774 22.6347 430.715 22.2987 430.715 21.904C430.715 21.136 430.998 20.5333 431.563 20.096C432.128 19.648 432.896 19.424 433.867 19.424C434.358 19.424 434.827 19.472 435.275 19.568C435.723 19.6533 436.059 19.7387 436.283 19.824L435.931 21.392C435.718 21.296 435.446 21.2107 435.115 21.136C434.784 21.0507 434.4 21.008 433.963 21.008C433.568 21.008 433.248 21.0773 433.003 21.216C432.758 21.344 432.635 21.5467 432.635 21.824C432.635 21.9627 432.656 22.0853 432.699 22.192C432.752 22.2987 432.838 22.4 432.955 22.496C433.072 22.5813 433.227 22.672 433.419 22.768C433.611 22.8533 433.846 22.944 434.123 23.04C434.582 23.2107 434.971 23.3813 435.291 23.552C435.611 23.712 435.872 23.8987 436.075 24.112C436.288 24.3147 436.443 24.5493 436.539 24.816C436.635 25.0827 436.683 25.4027 436.683 25.776C436.683 26.576 436.384 27.184 435.787 27.6C435.2 28.0053 434.358 28.208 433.259 28.208C432.523 28.208 431.931 28.144 431.483 28.016C431.035 27.8987 430.72 27.8027 430.539 27.728L430.875 26.112C431.163 26.2293 431.504 26.3413 431.899 26.448C432.304 26.5547 432.763 26.608 433.275 26.608ZM440.427 26.608C440.939 26.608 441.313 26.5493 441.547 26.432C441.782 26.304 441.899 26.0907 441.899 25.792C441.899 25.5147 441.771 25.2853 441.515 25.104C441.27 24.9227 440.859 24.7253 440.283 24.512C439.931 24.384 439.606 24.2507 439.307 24.112C439.019 23.9627 438.769 23.792 438.555 23.6C438.342 23.408 438.171 23.1787 438.043 22.912C437.926 22.6347 437.867 22.2987 437.867 21.904C437.867 21.136 438.15 20.5333 438.715 20.096C439.281 19.648 440.049 19.424 441.019 19.424C441.51 19.424 441.979 19.472 442.427 19.568C442.875 19.6533 443.211 19.7387 443.435 19.824L443.083 21.392C442.87 21.296 442.598 21.2107 442.267 21.136C441.937 21.0507 441.553 21.008 441.115 21.008C440.721 21.008 440.401 21.0773 440.155 21.216C439.91 21.344 439.787 21.5467 439.787 21.824C439.787 21.9627 439.809 22.0853 439.851 22.192C439.905 22.2987 439.99 22.4 440.107 22.496C440.225 22.5813 440.379 22.672 440.571 22.768C440.763 22.8533 440.998 22.944 441.275 23.04C441.734 23.2107 442.123 23.3813 442.443 23.552C442.763 23.712 443.025 23.8987 443.227 24.112C443.441 24.3147 443.595 24.5493 443.691 24.816C443.787 25.0827 443.835 25.4027 443.835 25.776C443.835 26.576 443.537 27.184 442.939 27.6C442.353 28.0053 441.51 28.208 440.411 28.208C439.675 28.208 439.083 28.144 438.635 28.016C438.187 27.8987 437.873 27.8027 437.691 27.728L438.027 26.112C438.315 26.2293 438.657 26.3413 439.051 26.448C439.457 26.5547 439.915 26.608 440.427 26.608ZM448.428 26.64C449.025 26.64 449.479 26.608 449.788 26.544V24.4C449.681 24.368 449.527 24.336 449.324 24.304C449.121 24.272 448.897 24.256 448.652 24.256C448.439 24.256 448.22 24.272 447.996 24.304C447.783 24.336 447.585 24.3947 447.404 24.48C447.233 24.5653 447.095 24.688 446.988 24.848C446.881 24.9973 446.828 25.1893 446.828 25.424C446.828 25.8827 446.972 26.2027 447.26 26.384C447.548 26.5547 447.937 26.64 448.428 26.64ZM448.268 19.424C448.908 19.424 449.447 19.504 449.884 19.664C450.321 19.824 450.668 20.048 450.924 20.336C451.191 20.624 451.377 20.976 451.484 21.392C451.601 21.7973 451.66 22.2453 451.66 22.736V27.808C451.361 27.872 450.908 27.9467 450.3 28.032C449.703 28.128 449.025 28.176 448.268 28.176C447.767 28.176 447.308 28.128 446.892 28.032C446.476 27.936 446.119 27.7813 445.82 27.568C445.532 27.3547 445.303 27.0773 445.132 26.736C444.972 26.3947 444.892 25.9733 444.892 25.472C444.892 24.992 444.983 24.5867 445.164 24.256C445.356 23.9253 445.612 23.6587 445.932 23.456C446.252 23.2427 446.62 23.0933 447.036 23.008C447.463 22.912 447.905 22.864 448.364 22.864C448.577 22.864 448.801 22.88 449.036 22.912C449.271 22.9333 449.521 22.976 449.788 23.04V22.72C449.788 22.496 449.761 22.2827 449.708 22.08C449.655 21.8773 449.559 21.7013 449.42 21.552C449.292 21.392 449.116 21.2693 448.892 21.184C448.679 21.0987 448.407 21.056 448.076 21.056C447.628 21.056 447.217 21.088 446.844 21.152C446.471 21.216 446.167 21.2907 445.932 21.376L445.692 19.808C445.937 19.7227 446.295 19.6373 446.764 19.552C447.233 19.4667 447.735 19.424 448.268 19.424ZM455.391 23.6C455.391 24.4213 455.567 25.024 455.919 25.408C456.281 25.7813 456.745 25.968 457.311 25.968C457.62 25.968 457.908 25.9253 458.175 25.84C458.452 25.7547 458.676 25.6533 458.847 25.536V21.2C458.708 21.168 458.537 21.1413 458.335 21.12C458.132 21.088 457.876 21.072 457.567 21.072C456.863 21.072 456.324 21.3067 455.951 21.776C455.577 22.2347 455.391 22.8427 455.391 23.6ZM460.783 27.152C460.783 28.4853 460.441 29.4613 459.759 30.08C459.087 30.6987 458.052 31.008 456.655 31.008C456.143 31.008 455.641 30.9653 455.151 30.88C454.671 30.7947 454.233 30.6827 453.839 30.544L454.191 28.896C454.521 29.0347 454.895 29.1467 455.311 29.232C455.737 29.3173 456.196 29.36 456.687 29.36C457.465 29.36 458.02 29.2 458.351 28.88C458.681 28.56 458.847 28.0853 458.847 27.456V27.136C458.655 27.232 458.399 27.328 458.079 27.424C457.769 27.52 457.412 27.568 457.007 27.568C456.473 27.568 455.983 27.4827 455.535 27.312C455.097 27.1413 454.719 26.8907 454.399 26.56C454.089 26.2293 453.844 25.8187 453.663 25.328C453.492 24.8267 453.407 24.2507 453.407 23.6C453.407 22.992 453.497 22.432 453.679 21.92C453.871 21.408 454.143 20.9707 454.495 20.608C454.857 20.2453 455.295 19.9627 455.807 19.76C456.319 19.5573 456.9 19.456 457.551 19.456C458.18 19.456 458.777 19.504 459.343 19.6C459.908 19.696 460.388 19.7973 460.783 19.904V27.152ZM462.622 23.856C462.622 23.12 462.728 22.4747 462.942 21.92C463.166 21.3653 463.459 20.9067 463.822 20.544C464.184 20.1707 464.6 19.8933 465.07 19.712C465.539 19.52 466.019 19.424 466.51 19.424C467.662 19.424 468.558 19.7813 469.198 20.496C469.848 21.2107 470.174 22.2773 470.174 23.696C470.174 23.8027 470.168 23.9253 470.158 24.064C470.158 24.192 470.152 24.3093 470.142 24.416H464.622C464.675 25.088 464.91 25.6107 465.326 25.984C465.752 26.3467 466.366 26.528 467.166 26.528C467.635 26.528 468.062 26.4853 468.446 26.4C468.84 26.3147 469.15 26.224 469.374 26.128L469.63 27.712C469.523 27.7653 469.374 27.824 469.182 27.888C469 27.9413 468.787 27.9893 468.542 28.032C468.307 28.0853 468.051 28.128 467.774 28.16C467.496 28.192 467.214 28.208 466.926 28.208C466.19 28.208 465.55 28.1013 465.006 27.888C464.462 27.664 464.014 27.36 463.662 26.976C463.31 26.5813 463.048 26.1227 462.878 25.6C462.707 25.0667 462.622 24.4853 462.622 23.856ZM468.238 22.992C468.238 22.7253 468.2 22.4747 468.126 22.24C468.051 21.9947 467.939 21.7867 467.79 21.616C467.651 21.4347 467.475 21.296 467.262 21.2C467.059 21.0933 466.814 21.04 466.526 21.04C466.227 21.04 465.966 21.0987 465.742 21.216C465.518 21.3227 465.326 21.4667 465.166 21.648C465.016 21.8293 464.899 22.0373 464.814 22.272C464.728 22.5067 464.67 22.7467 464.638 22.992H468.238Z" fill="#76CA66"/>
</svg>
